<svg xmlns="http://www.w3.org/2000/svg" xmlns:xlink="http://www.w3.org/1999/xlink" width="90" height="90" viewBox="0 0 90 90">
  <defs>
    <clipPath id="clip-path">
      <rect id="사각형_1991" data-name="사각형 1991" width="35.826" height="44.034" fill="#fff"/>
    </clipPath>
  </defs>
  <g id="그룹_7772" data-name="그룹 7772" transform="translate(-534 -1084)">
    <g id="그룹_7746" data-name="그룹 7746" transform="translate(533.598 1083.772)">
      <g id="그룹_57" data-name="그룹 57" transform="translate(0 0)">
        <circle id="타원_4" data-name="타원 4" cx="45" cy="45" r="45" transform="translate(0.403 0.228)"/>
      </g>
    </g>
    <g id="그룹_7748" data-name="그룹 7748" transform="translate(560.785 1107)">
      <g id="그룹_7747" data-name="그룹 7747" transform="translate(0 0)" clip-path="url(#clip-path)">
        <path id="패스_3130" data-name="패스 3130" d="M47.4,7.058A9.911,9.911,0,0,0,49.676,0,9.78,9.78,0,0,0,43.17,3.37a9.248,9.248,0,0,0-2.334,6.785,8.208,8.208,0,0,0,6.563-3.1" transform="translate(-23.015 0)" fill="#fff"/>
        <path id="패스_3131" data-name="패스 3131" d="M26.633,24.4c-3.624-.213-6.706,2.055-8.437,2.055s-4.388-1.944-7.249-1.893A10.694,10.694,0,0,0,1.859,30.08c-3.9,6.715-1.026,16.671,2.76,22.135,1.839,2.706,4.06,5.679,6.973,5.578C14.355,57.685,15.435,56,18.787,56s4.327,1.792,7.249,1.741c3.031-.057,4.924-2.707,6.766-5.413A24.124,24.124,0,0,0,35.826,46.1a9.837,9.837,0,0,1-5.9-8.932,10.028,10.028,0,0,1,4.762-8.386A10.361,10.361,0,0,0,26.633,24.4" transform="translate(0 -13.761)" fill="#fff"/>
      </g>
    </g>
  </g>
</svg>
